<svg xmlns="http://www.w3.org/2000/svg" viewBox="0 0 800 500">
  <!-- Dark background -->
  <rect width="800" height="500" fill="#1e2030" rx="10" ry="10"/>
  
  <!-- Title -->
  <text x="400" y="35" font-family="Arial, sans-serif" font-size="24" fill="#e4ecff" text-anchor="middle" font-weight="bold">Parallell Bearbetning av Dokumentsamlingar</text>
  
  <!-- Main container -->
  <rect x="50" y="60" width="700" height="420" fill="#2d3748" rx="8" ry="8" stroke="#6366f1" stroke-width="2"/>
  
  <!-- Batch processor visualization -->
  <rect x="70" y="80" width="330" height="170" fill="#1f2937" rx="6" ry="6"/>
  <text x="235" y="105" font-family="Arial, sans-serif" font-size="16" fill="#e4ecff" text-anchor="middle" font-weight="bold">BatchProcessor</text>
  
  <!-- Code visualization for batch processor -->
  <rect x="90" y="120" width="290" height="120" rx="4" ry="4" fill="#0f172a"/>
  <text x="100" y="140" font-family="monospace" font-size="10" fill="#e4ecff" text-anchor="start">class BatchProcessor:</text>
  <text x="100" y="155" font-family="monospace" font-size="10" fill="#e4ecff" text-anchor="start">    def __init__(self, config, max_workers=None):</text>
  <text x="100" y="170" font-family="monospace" font-size="10" fill="#e4ecff" text-anchor="start">        self.max_workers = max_workers or os.cpu_count()</text>
  <text x="100" y="185" font-family="monospace" font-size="10" fill="#38bdf8" text-anchor="start">    async def process_directory(self, directory_path):</text>
  <text x="100" y="200" font-family="monospace" font-size="10" fill="#e4ecff" text-anchor="start">        # Hitta alla dokument i katalogen</text>
  <text x="100" y="215" font-family="monospace" font-size="10" fill="#e4ecff" text-anchor="start">        # Skapa uppgifter för alla dokument</text>
  <text x="100" y="230" font-family="monospace" font-size="10" fill="#a5b4fc" text-anchor="start">        # Kör uppgifterna parallellt</text>
  
  <!-- Parallel flow visualization -->
  <rect x="70" y="260" width="660" height="200" fill="#1f2937" rx="6" ry="6"/>
  <text x="400" y="285" font-family="Arial, sans-serif" font-size="16" fill="#e4ecff" text-anchor="middle" font-weight="bold">Parallellt Arbetsflöde</text>
  
  <!-- Document input -->
  <rect x="90" y="305" width="120" height="40" rx="4" ry="4" fill="#4c1d95"/>
  <text x="150" y="330" font-family="Arial, sans-serif" font-size="12" fill="#e4ecff" text-anchor="middle">Dokumentkatalog</text>
  
  <!-- Arrow to Queue -->
  <path d="M 210 325 L 240 325" stroke="#6366f1" stroke-width="2" fill="none" marker-end="url(#arrow)"/>
  
  <!-- Queue -->
  <rect x="240" y="305" width="120" height="40" rx="4" ry="4" fill="#5b21b6"/>
  <text x="300" y="330" font-family="Arial, sans-serif" font-size="12" fill="#e4ecff" text-anchor="middle">Uppgiftskö</text>
  
  <!-- Arrows to workers -->
  <path d="M 300 345 L 300 365 L 200 365 L 200 380" stroke="#6366f1" stroke-width="2" fill="none" marker-end="url(#arrow)"/>
  <path d="M 300 345 L 300 380" stroke="#6366f1" stroke-width="2" fill="none" marker-end="url(#arrow)"/>
  <path d="M 300 345 L 300 365 L 400 365 L 400 380" stroke="#6366f1" stroke-width="2" fill="none" marker-end="url(#arrow)"/>
  
  <!-- Workers -->
  <rect x="140" y="380" width="120" height="40" rx="4" ry="4" fill="#6d28d9"/>
  <text x="200" y="405" font-family="Arial, sans-serif" font-size="12" fill="#e4ecff" text-anchor="middle">Worker 1</text>
  
  <rect x="240" y="380" width="120" height="40" rx="4" ry="4" fill="#6d28d9"/>
  <text x="300" y="405" font-family="Arial, sans-serif" font-size="12" fill="#e4ecff" text-anchor="middle">Worker 2</text>
  
  <rect x="340" y="380" width="120" height="40" rx="4" ry="4" fill="#6d28d9"/>
  <text x="400" y="405" font-family="Arial, sans-serif" font-size="12" fill="#e4ecff" text-anchor="middle">Worker 3</text>
  
  <!-- Results aggregation -->
  <rect x="550" y="305" width="120" height="40" rx="4" ry="4" fill="#3b82f6"/>
  <text x="610" y="330" font-family="Arial, sans-serif" font-size="12" fill="#e4ecff" text-anchor="middle">Resultatsamling</text>
  
  <!-- Arrows from workers to results -->
  <path d="M 200 380 L 200 365 L 500 365 L 500 325 L 550 325" stroke="#6366f1" stroke-width="2" fill="none" marker-end="url(#arrow)"/>
  <path d="M 300 380 L 300 365 L 500 365 L 500 325 L 550 325" stroke="#6366f1" stroke-width="2" fill="none" marker-end="url(#arrow)"/>
  <path d="M 400 380 L 400 365 L 500 365 L 500 325 L 550 325" stroke="#6366f1" stroke-width="2" fill="none" marker-end="url(#arrow)"/>
  
  <!-- Console output on right -->
  <rect x="420" y="80" width="310" height="170" fill="#1f2937" rx="6" ry="6"/>
  <text x="575" y="105" font-family="Arial, sans-serif" font-size="16" fill="#e4ecff" text-anchor="middle" font-weight="bold">Terminal-output</text>
  
  <!-- Terminal visualization -->
  <rect x="440" y="120" width="270" height="120" rx="4" ry="4" fill="#0f172a"/>
  <text x="450" y="140" font-family="monospace" font-size="10" fill="#10b981" text-anchor="start">[■■■■■■■■■■■■■■■■■■■■■■■■■■■■] 100%</text>
  <text x="450" y="160" font-family="monospace" font-size="10" fill="#10b981" text-anchor="start">✓ Processed 256 documents in 08:24</text>
  <text x="450" y="180" font-family="monospace" font-size="10" fill="#10b981" text-anchor="start">✓ Extracted 1,842 technical specs</text>
  <text x="450" y="200" font-family="monospace" font-size="10" fill="#10b981" text-anchor="start">✓ Extracted 734 compatibility relations</text>
  <text x="450" y="220" font-family="monospace" font-size="10" fill="#10b981" text-anchor="start">✓ Extracted 412 product identifiers</text>
  
  <!-- Arrow marker definition -->
  <defs>
    <marker id="arrow" markerWidth="10" markerHeight="10" refX="9" refY="5" orient="auto">
      <path d="M0,0 L0,10 L10,5 Z" fill="#6366f1"/>
    </marker>
  </defs>
</svg>
