<svg xmlns="http://www.w3.org/2000/svg" viewBox="0 0 700 400">
  <!-- Bakgrund -->
  <rect width="700" height="400" fill="#1e1e2e" rx="5" ry="5" stroke="#444" stroke-width="1"/>
  
  <!-- Titel -->
  <text x="350" y="30" font-family="Arial" font-size="18" text-anchor="middle" font-weight="bold" fill="#ffffff">Katalogstruktur för integrerad data</text>
  
  <!-- Huvudkatalog -->
  <rect x="50" y="60" width="600" height="320" fill="#2a2a3c" rx="5" ry="5" stroke="#555" stroke-width="1"/>
  <rect x="50" y="60" width="150" height="30" fill="#3b82f6" rx="5" ry="5" stroke="#2563eb" stroke-width="1"/>
  <text x="125" y="80" font-family="Arial" font-size="14" text-anchor="middle" fill="#ffffff">integrated_data/</text>
  
  <!-- Underkataloger -->
  <!-- products/ -->
  <rect x="70" y="110" width="250" height="250" fill="#1e1e2e" rx="5" ry="5" stroke="#444" stroke-width="1"/>
  <rect x="70" y="110" width="100" height="25" fill="#22c55e" rx="5" ry="5" stroke="#16a34a" stroke-width="1"/>
  <text x="120" y="127" font-family="Arial" font-size="12" text-anchor="middle" fill="#ffffff">products/</text>
  
  <!-- Produktkatalog -->
  <rect x="90" y="145" width="210" height="195" fill="#2d2d3d" rx="5" ry="5" stroke="#444" stroke-width="1"/>
  <rect x="90" y="145" width="140" height="25" fill="#f59e0b" rx="5" ry="5" stroke="#d97706" stroke-width="1"/>
  <text x="160" y="162" font-family="Arial" font-size="12" text-anchor="middle" fill="#ffffff">50025313/</text>
  
  <!-- Produktfiler -->
  <rect x="110" y="180" width="170" height="20" fill="#3d3d4f" rx="3" ry="3" stroke="#f59e0b" stroke-width="1"/>
  <text x="195" y="194" font-family="Arial" font-size="11" text-anchor="middle" fill="#ffffff">article_info.jsonl</text>
  
  <rect x="110" y="210" width="170" height="20" fill="#3d3d4f" rx="3" ry="3" stroke="#f59e0b" stroke-width="1"/>
  <text x="195" y="224" font-family="Arial" font-size="11" text-anchor="middle" fill="#ffffff">technical_specs.jsonl</text>
  
  <rect x="110" y="240" width="170" height="20" fill="#3d3d4f" rx="3" ry="3" stroke="#f59e0b" stroke-width="1"/>
  <text x="195" y="254" font-family="Arial" font-size="11" text-anchor="middle" fill="#ffffff">compatibility.jsonl</text>
  
  <rect x="110" y="270" width="170" height="20" fill="#3d3d4f" rx="3" ry="3" stroke="#f59e0b" stroke-width="1"/>
  <text x="195" y="284" font-family="Arial" font-size="11" text-anchor="middle" fill="#ffffff">summary.jsonl</text>
  
  <rect x="110" y="300" width="170" height="20" fill="#3d3d4f" rx="3" ry="3" stroke="#f59e0b" stroke-width="1"/>
  <text x="195" y="314" font-family="Arial" font-size="11" text-anchor="middle" fill="#ffffff">full_info.md</text>
  
  <!-- indices/ -->
  <rect x="350" y="110" width="280" height="170" fill="#1e1e2e" rx="5" ry="5" stroke="#444" stroke-width="1"/>
  <rect x="350" y="110" width="100" height="25" fill="#60a5fa" rx="5" ry="5" stroke="#3b82f6" stroke-width="1"/>
  <text x="400" y="127" font-family="Arial" font-size="12" text-anchor="middle" fill="#ffffff">indices/</text>
  
  <!-- Index-filer -->
  <rect x="370" y="145" width="240" height="20" fill="#2e2e40" rx="3" ry="3" stroke="#60a5fa" stroke-width="1"/>
  <text x="490" y="159" font-family="Arial" font-size="11" text-anchor="middle" fill="#ffffff">article_numbers.json</text>
  
  <rect x="370" y="175" width="240" height="20" fill="#2e2e40" rx="3" ry="3" stroke="#60a5fa" stroke-width="1"/>
  <text x="490" y="189" font-family="Arial" font-size="11" text-anchor="middle" fill="#ffffff">ean_numbers.json</text>
  
  <rect x="370" y="205" width="240" height="20" fill="#2e2e40" rx="3" ry="3" stroke="#60a5fa" stroke-width="1"/>
  <text x="490" y="219" font-family="Arial" font-size="11" text-anchor="middle" fill="#ffffff">compatibility_map.json</text>
  
  <rect x="370" y="235" width="240" height="20" fill="#2e2e40" rx="3" ry="3" stroke="#60a5fa" stroke-width="1"/>
  <text x="490" y="249" font-family="Arial" font-size="11" text-anchor="middle" fill="#ffffff">text_search_index.json</text>
  
  <!-- bot_responses/ -->
  <rect x="350" y="290" width="280" height="70" fill="#1e1e2e" rx="5" ry="5" stroke="#444" stroke-width="1"/>
  <rect x="350" y="290" width="130" height="25" fill="#f87171" rx="5" ry="5" stroke="#ef4444" stroke-width="1"/>
  <text x="415" y="307" font-family="Arial" font-size="12" text-anchor="middle" fill="#ffffff">bot_responses/</text>
  
  <rect x="370" y="325" width="240" height="20" fill="#3a2a2a" rx="3" ry="3" stroke="#f87171" stroke-width="1"/>
  <text x="490" y="339" font-family="Arial" font-size="11" text-anchor="middle" fill="#ffffff">50025313/command_responses/*</text>
</svg>
