<svg xmlns="http://www.w3.org/2000/svg" viewBox="0 0 700 400">
  <!-- Bakgrund -->
  <rect width="700" height="400" fill="#fff" rx="5" ry="5" stroke="#ccc" stroke-width="1"/>
  
  <!-- Titel -->
  <text x="350" y="30" font-family="Arial" font-size="18" text-anchor="middle" font-weight="bold" fill="#333">Katalogstruktur för integrerad data</text>
  
  <!-- Huvudkatalog -->
  <rect x="50" y="60" width="600" height="320" fill="#f0f0f0" rx="5" ry="5" stroke="#999" stroke-width="1"/>
  <rect x="50" y="60" width="150" height="30" fill="#6699cc" rx="5" ry="5" stroke="#3366aa" stroke-width="1"/>
  <text x="125" y="80" font-family="Arial" font-size="14" text-anchor="middle" fill="#fff">integrated_data/</text>
  
  <!-- Underkataloger -->
  <!-- products/ -->
  <rect x="70" y="110" width="250" height="250" fill="#f9f9f9" rx="5" ry="5" stroke="#ccc" stroke-width="1"/>
  <rect x="70" y="110" width="100" height="25" fill="#99cc99" rx="5" ry="5" stroke="#669966" stroke-width="1"/>
  <text x="120" y="127" font-family="Arial" font-size="12" text-anchor="middle" fill="#fff">products/</text>
  
  <!-- Produktkatalog -->
  <rect x="90" y="145" width="210" height="195" fill="#ffffff" rx="5" ry="5" stroke="#ccc" stroke-width="1"/>
  <rect x="90" y="145" width="140" height="25" fill="#ffcc88" rx="5" ry="5" stroke="#ee9944" stroke-width="1"/>
  <text x="160" y="162" font-family="Arial" font-size="12" text-anchor="middle" fill="#333">50025313/</text>
  
  <!-- Produktfiler -->
  <rect x="110" y="180" width="170" height="20" fill="#ffeecc" rx="3" ry="3" stroke="#ffcc88" stroke-width="1"/>
  <text x="195" y="194" font-family="Arial" font-size="11" text-anchor="middle" fill="#333">article_info.jsonl</text>
  
  <rect x="110" y="210" width="170" height="20" fill="#ffeecc" rx="3" ry="3" stroke="#ffcc88" stroke-width="1"/>
  <text x="195" y="224" font-family="Arial" font-size="11" text-anchor="middle" fill="#333">technical_specs.jsonl</text>
  
  <rect x="110" y="240" width="170" height="20" fill="#ffeecc" rx="3" ry="3" stroke="#ffcc88" stroke-width="1"/>
  <text x="195" y="254" font-family="Arial" font-size="11" text-anchor="middle" fill="#333">compatibility.jsonl</text>
  
  <rect x="110" y="270" width="170" height="20" fill="#ffeecc" rx="3" ry="3" stroke="#ffcc88" stroke-width="1"/>
  <text x="195" y="284" font-family="Arial" font-size="11" text-anchor="middle" fill="#333">summary.jsonl</text>
  
  <rect x="110" y="300" width="170" height="20" fill="#ffeecc" rx="3" ry="3" stroke="#ffcc88" stroke-width="1"/>
  <text x="195" y="314" font-family="Arial" font-size="11" text-anchor="middle" fill="#333">full_info.md</text>
  
  <!-- indices/ -->
  <rect x="350" y="110" width="280" height="170" fill="#f9f9f9" rx="5" ry="5" stroke="#ccc" stroke-width="1"/>
  <rect x="350" y="110" width="100" height="25" fill="#99bbee" rx="5" ry="5" stroke="#6688cc" stroke-width="1"/>
  <text x="400" y="127" font-family="Arial" font-size="12" text-anchor="middle" fill="#fff">indices/</text>
  
  <!-- Index-filer -->
  <rect x="370" y="145" width="240" height="20" fill="#e6f0ff" rx="3" ry="3" stroke="#99bbee" stroke-width="1"/>
  <text x="490" y="159" font-family="Arial" font-size="11" text-anchor="middle" fill="#333">article_numbers.json</text>
  
  <rect x="370" y="175" width="240" height="20" fill="#e6f0ff" rx="3" ry="3" stroke="#99bbee" stroke-width="1"/>
  <text x="490" y="189" font-family="Arial" font-size="11" text-anchor="middle" fill="#333">ean_numbers.json</text>
  
  <rect x="370" y="205" width="240" height="20" fill="#e6f0ff" rx="3" ry="3" stroke="#99bbee" stroke-width="1"/>
  <text x="490" y="219" font-family="Arial" font-size="11" text-anchor="middle" fill="#333">compatibility_map.json</text>
  
  <rect x="370" y="235" width="240" height="20" fill="#e6f0ff" rx="3" ry="3" stroke="#99bbee" stroke-width="1"/>
  <text x="490" y="249" font-family="Arial" font-size="11" text-anchor="middle" fill="#333">text_search_index.json</text>
  
  <!-- bot_responses/ -->
  <rect x="350" y="290" width="280" height="70" fill="#f9f9f9" rx="5" ry="5" stroke="#ccc" stroke-width="1"/>
  <rect x="350" y="290" width="130" height="25" fill="#ffaaaa" rx="5" ry="5" stroke="#ee7777" stroke-width="1"/>
  <text x="415" y="307" font-family="Arial" font-size="12" text-anchor="middle" fill="#fff">bot_responses/</text>
  
  <rect x="370" y="325" width="240" height="20" fill="#ffeeee" rx="3" ry="3" stroke="#ffbbbb" stroke-width="1"/>
  <text x="490" y="339" font-family="Arial" font-size="11" text-anchor="middle" fill="#333">50025313/command_responses/*</text>
</svg>