<svg xmlns="http://www.w3.org/2000/svg" viewBox="0 0 800 500">
  <!-- Dark background -->
  <rect width="800" height="500" fill="#1e2030" rx="10" ry="10"/>
  
  <!-- Title -->
  <text x="400" y="35" font-family="Arial, sans-serif" font-size="24" fill="#e4ecff" text-anchor="middle" font-weight="bold">Systemarkitektur: Översiktligt Flöde</text>
  
  <!-- Main container -->
  <rect x="50" y="60" width="700" height="420" fill="#2d3748" rx="8" ry="8" stroke="#6366f1" stroke-width="2"/>
  
  <!-- Start node -->
  <circle cx="150" cy="100" r="30" fill="#4c1d95"/>
  <text x="150" y="105" font-family="Arial, sans-serif" font-size="12" fill="#e4ecff" text-anchor="middle">Start</text>
  
  <!-- Arrow to Config -->
  <path d="M 150 130 L 150 160" stroke="#6366f1" stroke-width="2" fill="none" marker-end="url(#arrow)"/>
  
  <!-- Configuration Manager -->
  <rect x="90" y="160" width="120" height="40" rx="4" ry="4" fill="#5b21b6"/>
  <text x="150" y="185" font-family="Arial, sans-serif" font-size="11" fill="#e4ecff" text-anchor="middle">Konfiguration</text>
  
  <!-- Arrow to Workflow Manager -->
  <path d="M 150 200 L 150 230" stroke="#6366f1" stroke-width="2" fill="none" marker-end="url(#arrow)"/>
  
  <!-- Workflow Manager -->
  <rect x="90" y="230" width="120" height="40" rx="4" ry="4" fill="#6d28d9"/>
  <text x="150" y="255" font-family="Arial, sans-serif" font-size="11" fill="#e4ecff" text-anchor="middle">Arbetsflödeshantering</text>
  
  <!-- Arrows to components -->
  <path d="M 210 250 L 260 250" stroke="#6366f1" stroke-width="2" fill="none" marker-end="url(#arrow)"/>
  
  <!-- Processing Queue -->
  <rect x="260" y="230" width="120" height="40" rx="4" ry="4" fill="#7c3aed"/>
  <text x="320" y="255" font-family="Arial, sans-serif" font-size="11" fill="#e4ecff" text-anchor="middle">Bearbetningskö</text>
  
  <!-- Arrow between queue and workers -->
  <path d="M 320 270 L 320 300" stroke="#6366f1" stroke-width="2" fill="none" marker-end="url(#arrow)"/>
  <path d="M 380 250 L 430 250" stroke="#6366f1" stroke-width="2" fill="none" marker-end="url(#arrow)"/>
  
  <!-- Worker Threads -->
  <rect x="260" y="300" width="120" height="40" rx="4" ry="4" fill="#8b5cf6"/>
  <text x="320" y="325" font-family="Arial, sans-serif" font-size="11" fill="#e4ecff" text-anchor="middle">Worker-trådar</text>
  
  <!-- Batch Processor -->
  <rect x="430" y="230" width="120" height="40" rx="4" ry="4" fill="#a5b4fc"/>
  <text x="490" y="255" font-family="Arial, sans-serif" font-size="11" fill="#e4ecff" text-anchor="middle">Batchprocessor</text>
  
  <!-- Arrow to Product Processor -->
  <path d="M 320 340 L 320 370" stroke="#6366f1" stroke-width="2" fill="none" marker-end="url(#arrow)"/>
  
  <!-- Product Processor -->
  <rect x="260" y="370" width="120" height="40" rx="4" ry="4" fill="#1e40af"/>
  <text x="320" y="395" font-family="Arial, sans-serif" font-size="11" fill="#e4ecff" text-anchor="middle">Produktprocessor</text>
  
  <!-- Arrows to LLM and Validation -->
  <path d="M 380 390 L 430 390" stroke="#6366f1" stroke-width="2" fill="none" marker-end="url(#arrow)"/>
  <path d="M 380 370 L 380 330 L 490 330 L 490 300" stroke="#6366f1" stroke-width="2" fill="none" marker-end="url(#arrow)"/>
  
  <!-- LLM Client -->
  <rect x="430" y="370" width="120" height="40" rx="4" ry="4" fill="#1d4ed8"/>
  <text x="490" y="395" font-family="Arial, sans-serif" font-size="11" fill="#e4ecff" text-anchor="middle">LLM-klient</text>
  
  <!-- Validation -->
  <rect x="430" y="300" width="120" height="40" rx="4" ry="4" fill="#2563eb"/>
  <text x="490" y="325" font-family="Arial, sans-serif" font-size="11" fill="#e4ecff" text-anchor="middle">Validering</text>
  
  <!-- Arrows to subcomponents of LLM Client -->
  <path d="M 550 390 L 570 390 L 570 300 L 590 300" stroke="#6366f1" stroke-width="2" fill="none" marker-end="url(#arrow)"/>
  <path d="M 550 390 L 570 390 L 570 350 L 590 350" stroke="#6366f1" stroke-width="2" fill="none" marker-end="url(#arrow)"/>
  <path d="M 550 390 L 570 390 L 570 400 L 590 400" stroke="#6366f1" stroke-width="2" fill="none" marker-end="url(#arrow)"/>
  
  <!-- LLM Subcomponents -->
  <rect x="590" y="280" width="120" height="40" rx="4" ry="4" fill="#3b82f6"/>
  <text x="650" y="305" font-family="Arial, sans-serif" font-size="11" fill="#e4ecff" text-anchor="middle">Prompt Manager</text>
  
  <rect x="590" y="330" width="120" height="40" rx="4" ry="4" fill="#60a5fa"/>
  <text x="650" y="355" font-family="Arial, sans-serif" font-size="11" fill="#e4ecff" text-anchor="middle">Response Parser</text>
  
  <rect x="590" y="380" width="120" height="40" rx="4" ry="4" fill="#93c5fd"/>
  <text x="650" y="405" font-family="Arial, sans-serif" font-size="11" fill="#e4ecff" text-anchor="middle">Chunk Manager</text>
  
  <!-- Results flow -->
  <path d="M 550 320 L 570 320 L 570 200 L 590 200" stroke="#6366f1" stroke-width="2" fill="none" marker-end="url(#arrow)"/>
  
  <!-- Results storage -->
  <rect x="590" y="160" width="120" height="120" rx="8" ry="8" fill="#0f172a"/>
  <text x="650" y="180" font-family="Arial, sans-serif" font-size="12" fill="#e4ecff" text-anchor="middle" font-weight="bold">Resultat</text>
  
  <!-- Result types -->
  <rect x="600" y="190" width="100" height="25" rx="4" ry="4" fill="#0d9488"/>
  <text x="650" y="208" font-family="Arial, sans-serif" font-size="9" fill="#e4ecff" text-anchor="middle">Validerade Data</text>
  
  <rect x="600" y="220" width="100" height="25" rx="4" ry="4" fill="#0891b2"/>
  <text x="650" y="238" font-family="Arial, sans-serif" font-size="9" fill="#e4ecff" text-anchor="middle">Ovaliderade Data</text>
  
  <rect x="600" y="250" width="100" height="25" rx="4" ry="4" fill="#0284c7"/>
  <text x="650" y="268" font-family="Arial, sans-serif" font-size="9" fill="#e4ecff" text-anchor="middle">Strukturerade Data</text>
  
  <!-- Visualization & Reporting -->
  <rect x="430" y="100" width="280" height="40" rx="8" ry="8" fill="#4c1d95"/>
  <text x="570" y="125" font-family="Arial, sans-serif" font-size="12" fill="#e4ecff" text-anchor="middle" font-weight="bold">Visualisering & Rapportering</text>
  
  <!-- Visualization components -->
  <rect x="430" y="140" width="80" height="30" rx="4" ry="4" fill="#6d28d9"/>
  <text x="470" y="160" font-family="Arial, sans-serif" font-size="9" fill="#e4ecff" text-anchor="middle">Logger</text>
  
  <rect x="530" y="140" width="80" height="30" rx="4" ry="4" fill="#7c3aed"/>
  <text x="570" y="160" font-family="Arial, sans-serif" font-size="9" fill="#e4ecff" text-anchor="middle">Terminal</text>
  
  <rect x="630" y="140" width="80" height="30" rx="4" ry="4" fill="#8b5cf6"/>
  <text x="670" y="160" font-family="Arial, sans-serif" font-size="9" fill="#e4ecff" text-anchor="middle">Rapporter</text>
  
  <!-- Connectors to visualization -->
  <path d="M 210 240 L 340 240 L 340 160 L 430 160" stroke="#6366f1" stroke-width="1" stroke-dasharray="5,3" fill="none"/>
  <path d="M 650 160 L 680 160 L 680 220" stroke="#6366f1" stroke-width="1" stroke-dasharray="5,3" fill="none"/>
  
  <!-- Arrow marker definition -->
  <defs>
    <marker id="arrow" markerWidth="10" markerHeight="10" refX="9" refY="5" orient="auto">
      <path d="M0,0 L0,10 L10,5 Z" fill="#6366f1"/>
    </marker>
  </defs>
</svg>
